<svg width="183" height="60" viewBox="0 0 183 60" fill="none" xmlns="http://www.w3.org/2000/svg">
<g clip-path="url(#clip0_423_1258)">
<path d="M170.072 59.6745C169.523 59.6774 168.965 59.6774 168.416 59.6774H168.414H14.5935H14.5913C14.0314 59.6774 13.4781 59.6774 12.9196 59.6745C12.4515 59.6745 11.9871 59.6687 11.5145 59.6586L170.072 59.6745ZM170.072 59.6745C170.538 59.6745 171.015 59.6687 171.481 59.6586L170.072 59.6745ZM179.58 56.354L179.583 56.3511C180.273 55.6865 180.85 54.9212 181.294 54.0835C181.731 53.2403 182.033 52.3377 182.19 51.4069L182.191 51.4045C182.357 50.4483 182.449 49.4814 182.467 48.512C182.467 48.5114 182.467 48.5108 182.467 48.5102L182.967 48.5195L179.58 56.354ZM179.58 56.354C178.896 57.0239 178.105 57.5835 177.237 58.0112L179.58 56.354ZM168.914 0.822611V0.8225L177.236 58.0117C176.361 58.4403 175.425 58.7407 174.458 58.9029C173.472 59.061 172.475 59.1465 171.475 59.1586L171.471 59.1587C171.008 59.1687 170.534 59.1745 170.072 59.1745L170.069 59.1745C169.521 59.1775 168.964 59.1774 168.414 59.1774H14.5935H14.5913C14.0312 59.1774 13.4792 59.1774 12.9223 59.1745H12.9196C12.4556 59.1745 11.9949 59.1687 11.5252 59.1587L11.5209 59.1586C10.519 59.1458 9.51949 59.0603 8.5308 58.9027C7.56782 58.7417 6.63557 58.4413 5.76523 58.0119L5.76467 58.0116C4.89567 57.5841 4.10369 57.0243 3.41873 56.3539L3.41876 56.3538L3.41478 56.35C2.72388 55.6885 2.14855 54.9234 1.71073 54.0844L1.71048 54.084C1.26937 53.2409 0.963988 52.3377 0.804667 51.4058L0.804465 51.4046C0.638767 50.449 0.549608 49.4823 0.537776 48.5134H0.537862L0.537576 48.5041C0.528025 48.1939 0.524354 47.8935 0.520589 47.5855C0.518832 47.4418 0.517054 47.2963 0.514648 47.1475V12.857C0.517087 12.708 0.518879 12.5609 0.520657 12.4151C0.524399 12.1082 0.528076 11.8065 0.53757 11.5021L0.53766 11.5021L0.537776 11.4926C0.549604 10.5236 0.638764 9.5569 0.804467 8.60119L0.804619 8.60031C0.9644 7.66881 1.2698 6.76604 1.71054 5.92319L1.71099 5.92232C2.14921 5.0803 2.72473 4.31165 3.41581 3.64617L3.41582 3.64617L3.41726 3.64477C4.10558 2.9766 4.89786 2.41654 5.76559 1.98522C6.6358 1.55705 7.568 1.25859 8.5307 1.10016C9.51903 0.941339 10.5184 0.855832 11.5202 0.844395L11.5222 0.844365C11.621 0.842847 11.7193 0.841274 11.8171 0.839708C12.1889 0.833756 12.5543 0.827907 12.9225 0.825571C13.4801 0.822612 14.0326 0.822611 14.5935 0.822611H168.414H168.914ZM182.191 8.60125C182.357 9.55746 182.449 10.5243 182.467 11.4937L171.215 0.840044C171.301 0.841431 171.387 0.842817 171.474 0.844162L171.476 0.844187C172.475 0.854966 173.473 0.940468 174.459 1.09992C175.425 1.2595 176.361 1.55789 177.235 1.98503C178.981 2.85564 180.4 4.2338 181.294 5.92347C181.731 6.76651 182.033 7.66868 182.19 8.59909L182.191 8.60125Z" stroke="url(#paint0_linear_423_1258)"/>
<path d="M37.8873 30.4462C37.9037 29.2077 38.2427 27.9933 38.8727 26.9161C39.5027 25.8388 40.4033 24.9338 41.4905 24.2851C40.7998 23.3277 39.8886 22.5399 38.8292 21.9841C37.7699 21.4283 36.5916 21.1199 35.3879 21.0833C32.8203 20.8218 30.3311 22.5744 29.0227 22.5744C27.689 22.5744 25.6745 21.1093 23.5052 21.1526C22.1021 21.1966 20.7346 21.5926 19.536 22.302C18.3374 23.0113 17.3486 24.0099 16.666 25.2004C13.7088 30.1691 15.9146 37.4713 18.7473 41.4875C20.1645 43.4542 21.8209 45.651 23.9882 45.5731C26.1091 45.4877 26.9012 44.2606 29.4613 44.2606C31.9976 44.2606 32.7407 45.5731 34.952 45.5235C37.2278 45.4877 38.6617 43.5481 40.0292 41.5629C41.0475 40.1616 41.8311 38.6128 42.3509 36.974C41.0287 36.4313 39.9004 35.5229 39.1067 34.3621C38.3129 33.2012 37.8888 31.8393 37.8873 30.4462Z" fill="url(#paint1_linear_423_1258)"/>
<path d="M33.7105 18.442C34.9514 16.9964 35.5627 15.1383 35.4147 13.2623C33.5189 13.4556 31.7678 14.3349 30.5102 15.725C29.8953 16.4041 29.4244 17.1942 29.1243 18.05C28.8242 18.9059 28.7009 19.8107 28.7614 20.7129C29.7096 20.7223 30.6477 20.5229 31.505 20.1295C32.3622 19.7362 33.1164 19.1592 33.7105 18.442Z" fill="url(#paint2_linear_423_1258)"/>
<path d="M64.6964 40.5943H57.4589L55.7208 45.5749H52.6553L59.5105 27.1482H62.6955L69.5508 45.5749H66.433L64.6964 40.5943ZM58.2085 38.2961H63.9454L61.1173 30.213H61.0381L58.2085 38.2961Z" fill="url(#paint3_linear_423_1258)"/>
<path d="M84.3558 38.8583C84.3558 43.0332 82.0533 45.7154 78.5787 45.7154C77.6985 45.7601 76.8231 45.5633 76.0528 45.1477C75.2825 44.732 74.6483 44.1142 74.223 43.365H74.1573V50.0192H71.3157V32.1403H74.0662V34.3748H74.1185C74.5634 33.6292 75.2082 33.0146 75.9844 32.5964C76.7606 32.1782 77.6391 31.972 78.5264 31.9998C82.0398 31.9998 84.3558 34.6951 84.3558 38.8583ZM81.4351 38.8583C81.4351 36.1384 79.9867 34.3502 77.7768 34.3502C75.6057 34.3502 74.1453 36.176 74.1453 38.8583C74.1453 41.5652 75.6057 43.378 77.7768 43.378C79.9867 43.378 81.4351 41.6029 81.4351 38.8583Z" fill="url(#paint4_linear_423_1258)"/>
<path d="M99.5924 38.8583C99.5924 43.0332 97.2899 45.7154 93.8152 45.7154C92.935 45.7601 92.0596 45.5633 91.2893 45.1477C90.519 44.732 89.8849 44.1142 89.4596 43.365H89.3938V50.0192H86.5523V32.1403H89.3027V34.3748H89.355C89.7999 33.6292 90.4447 33.0146 91.2209 32.5964C91.9971 32.1782 92.8756 31.972 93.7629 31.9998C97.2764 31.9998 99.5924 34.6951 99.5924 38.8583ZM96.6717 38.8583C96.6717 36.1384 95.2233 34.3502 93.0133 34.3502C90.8422 34.3502 89.3819 36.176 89.3819 38.8583C89.3819 41.5652 90.8422 43.378 93.0133 43.378C95.2233 43.378 96.6717 41.6029 96.6717 38.8583Z" fill="url(#paint5_linear_423_1258)"/>
<path d="M109.663 40.4407C109.873 42.268 111.702 43.4678 114.202 43.4678C116.597 43.4678 118.32 42.268 118.32 40.6203C118.32 39.1901 117.281 38.3337 114.82 37.7468L112.359 37.1715C108.873 36.3542 107.254 34.7718 107.254 32.204C107.254 29.0247 110.109 26.8409 114.163 26.8409C118.175 26.8409 120.926 29.0247 121.018 32.204H118.15C117.978 30.3651 116.412 29.2551 114.123 29.2551C111.834 29.2551 110.267 30.3782 110.267 32.0127C110.267 33.3155 111.268 34.082 113.715 34.6689L115.807 35.1674C119.703 36.0614 121.321 37.5801 121.321 40.2754C121.321 43.7228 118.492 45.8819 113.991 45.8819C109.78 45.8819 106.937 43.7735 106.754 40.4406L109.663 40.4407Z" fill="url(#paint6_linear_423_1258)"/>
<path d="M127.454 28.961V32.1403H130.086V34.3241H127.454V41.7304C127.454 42.881 127.981 43.4172 129.138 43.4172C129.451 43.4119 129.763 43.3906 130.073 43.3534V45.5241C129.553 45.6184 129.024 45.6612 128.495 45.6516C125.692 45.6516 124.599 44.63 124.599 42.0245V34.3241H122.586V32.1403H124.599V28.961H127.454Z" fill="url(#paint7_linear_423_1258)"/>
<path d="M131.611 38.8583C131.611 34.6313 134.176 31.9751 138.177 31.9751C142.19 31.9751 144.744 34.6313 144.744 38.8583C144.744 43.0969 142.204 45.7415 138.177 45.7415C134.151 45.7415 131.611 43.0969 131.611 38.8583ZM141.848 38.8583C141.848 35.9587 140.479 34.2473 138.177 34.2473C135.874 34.2473 134.506 35.9717 134.506 38.8583C134.506 41.7695 135.874 43.4679 138.177 43.4679C140.479 43.4679 141.848 41.7695 141.848 38.8583Z" fill="url(#paint8_linear_423_1258)"/>
<path d="M147.086 32.1403H149.797V34.427H149.862C150.046 33.7128 150.477 33.0817 151.083 32.6396C151.69 32.1976 152.434 31.9717 153.192 31.9997C153.52 31.9986 153.846 32.0331 154.166 32.1026V34.682C153.752 34.5594 153.321 34.5031 152.889 34.5154C152.476 34.4991 152.065 34.5698 151.683 34.7224C151.301 34.8751 150.957 35.1062 150.676 35.3998C150.395 35.6935 150.182 36.0427 150.053 36.4236C149.924 36.8044 149.881 37.2079 149.928 37.6063V45.5748H147.086L147.086 32.1403Z" fill="url(#paint9_linear_423_1258)"/>
<path d="M167.267 41.629C166.885 44.0678 164.437 45.7415 161.306 45.7415C157.279 45.7415 154.779 43.123 154.779 38.9221C154.779 34.7081 157.292 31.9751 161.187 31.9751C165.017 31.9751 167.425 34.5284 167.425 38.6018V39.5466H157.648V39.7133C157.603 40.2077 157.667 40.7058 157.835 41.1745C158.003 41.6431 158.273 42.0716 158.625 42.4315C158.977 42.7915 159.404 43.0745 159.878 43.2619C160.351 43.4494 160.861 43.5368 161.372 43.5186C162.043 43.5796 162.717 43.4287 163.293 43.0883C163.869 42.7478 164.317 42.236 164.569 41.629L167.267 41.629ZM157.661 37.6193H164.582C164.608 37.1748 164.538 36.7299 164.378 36.3126C164.218 35.8953 163.971 35.5147 163.652 35.1945C163.333 34.8743 162.95 34.6216 162.525 34.4521C162.101 34.2826 161.645 34.2001 161.187 34.2096C160.724 34.2069 160.265 34.2932 159.837 34.4635C159.409 34.6337 159.02 34.8846 158.692 35.2016C158.364 35.5186 158.104 35.8955 157.927 36.3105C157.751 36.7254 157.66 37.1703 157.661 37.6193Z" fill="url(#paint10_linear_423_1258)"/>
<path d="M57.8523 13.2783C58.4481 13.2368 59.0459 13.3241 59.6026 13.534C60.1593 13.7439 60.6612 14.071 61.0718 14.4919C61.4825 14.9127 61.7918 15.4168 61.9774 15.9677C62.1631 16.5187 62.2204 17.1027 62.1453 17.6777C62.1453 20.5063 60.57 22.1323 57.8523 22.1323H54.5569V13.2783H57.8523ZM55.9739 20.8801H57.6941C58.1197 20.9048 58.5458 20.8371 58.9411 20.6819C59.3364 20.5266 59.6911 20.2878 59.9793 19.9828C60.2675 19.6777 60.482 19.3142 60.6071 18.9185C60.7323 18.5229 60.765 18.1052 60.7028 17.6958C60.7605 17.2879 60.7245 16.8728 60.5974 16.4801C60.4703 16.0873 60.2553 15.7267 59.9677 15.4241C59.6802 15.1215 59.3272 14.8844 58.9341 14.7297C58.541 14.5751 58.1176 14.5067 57.6941 14.5295H55.9739V20.8801Z" fill="url(#paint11_linear_423_1258)"/>
<path d="M63.746 18.7884C63.7027 18.3493 63.7545 17.9062 63.8979 17.4877C64.0414 17.0691 64.2735 16.6843 64.5792 16.3579C64.8849 16.0315 65.2575 15.7706 65.6732 15.5922C66.0889 15.4137 66.5384 15.3215 66.9929 15.3215C67.4475 15.3215 67.897 15.4137 68.3127 15.5922C68.7283 15.7706 69.101 16.0315 69.4067 16.3579C69.7124 16.6843 69.9444 17.0691 70.0879 17.4877C70.2314 17.9062 70.2832 18.3493 70.2399 18.7884C70.284 19.2279 70.2329 19.6716 70.0897 20.0908C69.9466 20.5101 69.7147 20.8956 69.4089 21.2227C69.1031 21.5497 68.7302 21.8111 68.3141 21.9899C67.8981 22.1688 67.448 22.2612 66.9929 22.2612C66.5379 22.2612 66.0878 22.1688 65.6717 21.9899C65.2556 21.8111 64.8827 21.5497 64.5769 21.2227C64.2711 20.8956 64.0392 20.5101 63.8961 20.0908C63.753 19.6716 63.7019 19.2279 63.746 18.7884ZM68.8422 18.7884C68.8422 17.34 68.1718 16.493 66.9952 16.493C65.8141 16.493 65.1496 17.34 65.1496 18.7884C65.1496 20.2484 65.8141 21.0888 66.9952 21.0888C68.1718 21.0888 68.8422 20.2426 68.8422 18.7884Z" fill="url(#paint12_linear_423_1258)"/>
<path d="M78.8721 22.1322H77.4625L76.0395 17.211H75.932L74.5149 22.1322H73.1188L71.2209 15.4504H72.5992L73.8325 20.549H73.9341L75.3496 15.4504H76.6532L78.0687 20.549H78.1762L79.4036 15.4504H80.7624L78.8721 22.1322Z" fill="url(#paint13_linear_423_1258)"/>
<path d="M82.3587 15.4504H83.6667V16.5118H83.7682C83.9405 16.1306 84.231 15.811 84.5993 15.5976C84.9676 15.3842 85.3953 15.2877 85.8229 15.3214C86.1579 15.297 86.4943 15.346 86.8071 15.4648C87.12 15.5837 87.4012 15.7693 87.6301 16.008C87.859 16.2467 88.0296 16.5323 88.1293 16.8436C88.229 17.155 88.2552 17.4841 88.206 17.8066V22.1321H86.8472V18.1377C86.8472 17.064 86.3664 16.53 85.3615 16.53C85.134 16.5197 84.907 16.5573 84.6959 16.6401C84.4848 16.7229 84.2946 16.8491 84.1385 17.0099C83.9823 17.1708 83.8639 17.3625 83.7912 17.5719C83.7185 17.7813 83.6934 18.0035 83.7175 18.2232V22.1322H82.3587L82.3587 15.4504Z" fill="url(#paint14_linear_423_1258)"/>
<path d="M90.3712 12.842H91.73V22.1321H90.3712V12.842Z" fill="url(#paint15_linear_423_1258)"/>
<path d="M93.6188 18.7884C93.5756 18.3493 93.6274 17.9062 93.7709 17.4876C93.9144 17.0691 94.1465 16.6842 94.4523 16.3578C94.758 16.0313 95.1307 15.7705 95.5464 15.592C95.9621 15.4136 96.4116 15.3214 96.8662 15.3214C97.3207 15.3214 97.7703 15.4136 98.186 15.592C98.6017 15.7705 98.9744 16.0313 99.2801 16.3578C99.5858 16.6842 99.8179 17.0691 99.9614 17.4876C100.105 17.9062 100.157 18.3493 100.114 18.7884C100.158 19.228 100.106 19.6716 99.9632 20.0908C99.8201 20.5101 99.5881 20.8956 99.2823 21.2227C98.9765 21.5497 98.6035 21.8111 98.1874 21.9899C97.7713 22.1688 97.3213 22.2612 96.8662 22.2612C96.4111 22.2612 95.961 22.1688 95.5449 21.9899C95.1288 21.8111 94.7559 21.5497 94.4501 21.2227C94.1442 20.8956 93.9123 20.5101 93.7691 20.0908C93.626 19.6716 93.5748 19.228 93.6188 18.7884ZM98.7151 18.7884C98.7151 17.34 98.0447 16.493 96.868 16.493C95.6869 16.493 95.0225 17.34 95.0225 18.7884C95.0225 20.2484 95.687 21.0888 96.868 21.0888C98.0447 21.0888 98.7151 20.2426 98.7151 18.7884Z" fill="url(#paint16_linear_423_1258)"/>
<path d="M101.544 20.2426C101.544 19.0398 102.467 18.3464 104.105 18.2479L105.97 18.1435V17.5668C105.97 16.8611 105.489 16.4626 104.56 16.4626C103.802 16.4626 103.276 16.7329 103.125 17.2053H101.81C101.949 16.0576 103.061 15.3214 104.623 15.3214C106.349 15.3214 107.323 16.1554 107.323 17.5668V22.1322H106.015V21.1932H105.907C105.689 21.53 105.382 21.8046 105.019 21.9889C104.656 22.1732 104.249 22.2606 103.839 22.2423C103.55 22.2714 103.258 22.2415 102.981 22.1544C102.705 22.0673 102.451 21.925 102.234 21.7366C102.018 21.5482 101.845 21.3179 101.726 21.0605C101.607 20.8032 101.545 20.5246 101.544 20.2426ZM105.97 19.6716V19.113L104.288 19.2173C103.34 19.2789 102.91 19.5919 102.91 20.181C102.91 20.7823 103.448 21.1323 104.187 21.1323C104.404 21.1536 104.622 21.1323 104.83 21.0699C105.038 21.0074 105.231 20.905 105.397 20.7687C105.564 20.6324 105.7 20.4651 105.799 20.2766C105.897 20.0881 105.955 19.8824 105.97 19.6716Z" fill="url(#paint17_linear_423_1258)"/>
<path d="M109.109 18.7884C109.109 16.6771 110.227 15.3395 111.966 15.3395C112.397 15.3203 112.824 15.4203 113.198 15.6279C113.572 15.8355 113.877 16.1421 114.078 16.5118H114.179V12.842H115.538V22.1321H114.236V21.0765H114.129C113.912 21.4437 113.596 21.7465 113.215 21.952C112.834 22.1575 112.402 22.2578 111.967 22.2423C110.215 22.2423 109.109 20.9048 109.109 18.7884ZM110.512 18.7884C110.512 20.2056 111.201 21.0584 112.352 21.0584C113.497 21.0584 114.205 20.1933 114.205 18.7942C114.205 17.4016 113.49 16.5242 112.352 16.5242C111.208 16.5242 110.512 17.3828 110.512 18.7884Z" fill="url(#paint18_linear_423_1258)"/>
<path d="M121.16 18.7884C121.117 18.3493 121.169 17.9062 121.312 17.4877C121.456 17.0691 121.688 16.6843 121.993 16.3579C122.299 16.0315 122.672 15.7706 123.087 15.5922C123.503 15.4137 123.953 15.3215 124.407 15.3215C124.862 15.3215 125.311 15.4137 125.727 15.5922C126.142 15.7706 126.515 16.0315 126.821 16.3579C127.127 16.6843 127.359 17.0691 127.502 17.4877C127.646 17.9062 127.697 18.3493 127.654 18.7884C127.698 19.2279 127.647 19.6716 127.504 20.0908C127.361 20.5101 127.129 20.8956 126.823 21.2227C126.517 21.5497 126.144 21.8111 125.728 21.9899C125.312 22.1688 124.862 22.2612 124.407 22.2612C123.952 22.2612 123.502 22.1688 123.086 21.9899C122.67 21.8111 122.297 21.5497 121.991 21.2227C121.685 20.8956 121.453 20.5101 121.31 20.0908C121.167 19.6716 121.116 19.2279 121.16 18.7884ZM126.256 18.7884C126.256 17.34 125.586 16.493 124.409 16.493C123.228 16.493 122.564 17.34 122.564 18.7884C122.564 20.2484 123.228 21.0888 124.409 21.0888C125.586 21.0888 126.256 20.2426 126.256 18.7884Z" fill="url(#paint19_linear_423_1258)"/>
<path d="M129.477 15.4504H130.785V16.5118H130.887C131.059 16.1306 131.35 15.811 131.718 15.5976C132.086 15.3842 132.514 15.2877 132.941 15.3214C133.276 15.297 133.613 15.346 133.926 15.4648C134.238 15.5837 134.52 15.7693 134.749 16.008C134.978 16.2467 135.148 16.5323 135.248 16.8436C135.348 17.155 135.374 17.4841 135.325 17.8066V22.1321H133.966V18.1377C133.966 17.064 133.485 16.53 132.48 16.53C132.253 16.5197 132.026 16.5573 131.814 16.6401C131.603 16.7229 131.413 16.8491 131.257 17.0099C131.101 17.1708 130.982 17.3625 130.91 17.5719C130.837 17.7813 130.812 18.0035 130.836 18.2232V22.1322H129.477V15.4504Z" fill="url(#paint20_linear_423_1258)"/>
<path d="M143.003 13.7868V15.4808H144.494V16.5916H143.003V20.0274C143.003 20.7273 143.3 21.0338 143.976 21.0338C144.149 21.0332 144.322 21.0231 144.494 21.0033V22.1017C144.25 22.1441 144.003 22.1666 143.755 22.1691C142.244 22.1691 141.642 21.6532 141.642 20.365V16.5915H140.549V15.4808H141.642V13.7868H143.003Z" fill="url(#paint21_linear_423_1258)"/>
<path d="M146.35 12.842H147.697V16.5242H147.805C147.985 16.1394 148.284 15.818 148.659 15.6038C149.035 15.3896 149.47 15.293 149.904 15.3272C150.237 15.3096 150.57 15.3636 150.88 15.4853C151.189 15.6071 151.467 15.7936 151.693 16.0315C151.92 16.2694 152.089 16.5529 152.19 16.8618C152.291 17.1706 152.32 17.4972 152.275 17.8182V22.1322H150.915V18.1435C150.915 17.0763 150.403 16.5357 149.443 16.5357C149.209 16.5171 148.974 16.5483 148.754 16.627C148.535 16.7058 148.335 16.8301 148.17 16.9915C148.005 17.1529 147.878 17.3473 147.799 17.5612C147.719 17.775 147.688 18.0032 147.709 18.2297V22.1321H146.35L146.35 12.842Z" fill="url(#paint22_linear_423_1258)"/>
<path d="M160.198 20.328C160.014 20.9387 159.614 21.4669 159.068 21.8203C158.523 22.1737 157.867 22.3297 157.215 22.2611C156.761 22.2727 156.31 22.1884 155.894 22.014C155.477 21.8396 155.105 21.5793 154.802 21.2512C154.499 20.923 154.274 20.5349 154.141 20.1138C154.009 19.6926 153.972 19.2485 154.034 18.8123C153.974 18.3747 154.011 17.9297 154.143 17.5072C154.276 17.0848 154.5 16.6949 154.801 16.3639C155.102 16.0329 155.473 15.7685 155.888 15.5886C156.304 15.4088 156.754 15.3177 157.209 15.3214C159.125 15.3214 160.28 16.5916 160.28 18.6898V19.1499H155.418V19.2238C155.397 19.469 155.429 19.7159 155.512 19.9485C155.594 20.1811 155.726 20.3943 155.899 20.5745C156.072 20.7547 156.281 20.898 156.514 20.995C156.747 21.0921 156.999 21.1408 157.252 21.138C157.577 21.1759 157.906 21.1191 158.198 20.9749C158.49 20.8306 158.731 20.6055 158.89 20.328L160.198 20.328ZM155.418 18.1747H158.896C158.913 17.9504 158.882 17.7252 158.804 17.5134C158.726 17.3016 158.603 17.108 158.444 16.945C158.284 16.782 158.091 16.6532 157.877 16.5669C157.663 16.4805 157.433 16.4386 157.201 16.4437C156.966 16.4409 156.733 16.4837 156.515 16.5697C156.298 16.6557 156.1 16.7831 155.934 16.9444C155.768 17.1057 155.636 17.2977 155.548 17.509C155.459 17.7203 155.415 17.9466 155.418 18.1747Z" fill="url(#paint23_linear_423_1258)"/>
</g>
<defs>
<linearGradient id="paint0_linear_423_1258" x1="0.0146484" y1="0.322418" x2="185.466" y2="50.5109" gradientUnits="userSpaceOnUse">
<stop stop-color="#9DA1B8"/>
<stop offset="1" stop-color="#9DA1B8"/>
</linearGradient>
<linearGradient id="paint1_linear_423_1258" x1="15.2617" y1="12.842" x2="161.857" y2="65.5171" gradientUnits="userSpaceOnUse">
<stop stop-color="#9DA1B8"/>
<stop offset="1" stop-color="#9DA1B8"/>
</linearGradient>
<linearGradient id="paint2_linear_423_1258" x1="15.2617" y1="12.842" x2="161.857" y2="65.5171" gradientUnits="userSpaceOnUse">
<stop stop-color="#9DA1B8"/>
<stop offset="1" stop-color="#9DA1B8"/>
</linearGradient>
<linearGradient id="paint3_linear_423_1258" x1="15.2617" y1="12.842" x2="161.857" y2="65.5171" gradientUnits="userSpaceOnUse">
<stop stop-color="#9DA1B8"/>
<stop offset="1" stop-color="#9DA1B8"/>
</linearGradient>
<linearGradient id="paint4_linear_423_1258" x1="15.2617" y1="12.842" x2="161.857" y2="65.5171" gradientUnits="userSpaceOnUse">
<stop stop-color="#9DA1B8"/>
<stop offset="1" stop-color="#9DA1B8"/>
</linearGradient>
<linearGradient id="paint5_linear_423_1258" x1="15.2617" y1="12.842" x2="161.857" y2="65.5171" gradientUnits="userSpaceOnUse">
<stop stop-color="#9DA1B8"/>
<stop offset="1" stop-color="#9DA1B8"/>
</linearGradient>
<linearGradient id="paint6_linear_423_1258" x1="15.2617" y1="12.842" x2="161.857" y2="65.5171" gradientUnits="userSpaceOnUse">
<stop stop-color="#9DA1B8"/>
<stop offset="1" stop-color="#9DA1B8"/>
</linearGradient>
<linearGradient id="paint7_linear_423_1258" x1="15.2617" y1="12.842" x2="161.857" y2="65.5171" gradientUnits="userSpaceOnUse">
<stop stop-color="#9DA1B8"/>
<stop offset="1" stop-color="#9DA1B8"/>
</linearGradient>
<linearGradient id="paint8_linear_423_1258" x1="15.2617" y1="12.842" x2="161.857" y2="65.5171" gradientUnits="userSpaceOnUse">
<stop stop-color="#9DA1B8"/>
<stop offset="1" stop-color="#9DA1B8"/>
</linearGradient>
<linearGradient id="paint9_linear_423_1258" x1="15.2617" y1="12.842" x2="161.857" y2="65.5171" gradientUnits="userSpaceOnUse">
<stop stop-color="#9DA1B8"/>
<stop offset="1" stop-color="#9DA1B8"/>
</linearGradient>
<linearGradient id="paint10_linear_423_1258" x1="15.2617" y1="12.842" x2="161.857" y2="65.5171" gradientUnits="userSpaceOnUse">
<stop stop-color="#9DA1B8"/>
<stop offset="1" stop-color="#9DA1B8"/>
</linearGradient>
<linearGradient id="paint11_linear_423_1258" x1="15.2617" y1="12.842" x2="161.857" y2="65.5171" gradientUnits="userSpaceOnUse">
<stop stop-color="#9DA1B8"/>
<stop offset="1" stop-color="#9DA1B8"/>
</linearGradient>
<linearGradient id="paint12_linear_423_1258" x1="15.2617" y1="12.842" x2="161.857" y2="65.5171" gradientUnits="userSpaceOnUse">
<stop stop-color="#9DA1B8"/>
<stop offset="1" stop-color="#9DA1B8"/>
</linearGradient>
<linearGradient id="paint13_linear_423_1258" x1="15.2617" y1="12.842" x2="161.857" y2="65.5171" gradientUnits="userSpaceOnUse">
<stop stop-color="#9DA1B8"/>
<stop offset="1" stop-color="#9DA1B8"/>
</linearGradient>
<linearGradient id="paint14_linear_423_1258" x1="15.2617" y1="12.842" x2="161.857" y2="65.5171" gradientUnits="userSpaceOnUse">
<stop stop-color="#9DA1B8"/>
<stop offset="1" stop-color="#9DA1B8"/>
</linearGradient>
<linearGradient id="paint15_linear_423_1258" x1="15.2617" y1="12.842" x2="161.857" y2="65.5171" gradientUnits="userSpaceOnUse">
<stop stop-color="#9DA1B8"/>
<stop offset="1" stop-color="#9DA1B8"/>
</linearGradient>
<linearGradient id="paint16_linear_423_1258" x1="15.2617" y1="12.842" x2="161.857" y2="65.5171" gradientUnits="userSpaceOnUse">
<stop stop-color="#9DA1B8"/>
<stop offset="1" stop-color="#9DA1B8"/>
</linearGradient>
<linearGradient id="paint17_linear_423_1258" x1="15.2617" y1="12.842" x2="161.857" y2="65.5171" gradientUnits="userSpaceOnUse">
<stop stop-color="#9DA1B8"/>
<stop offset="1" stop-color="#9DA1B8"/>
</linearGradient>
<linearGradient id="paint18_linear_423_1258" x1="15.2617" y1="12.842" x2="161.857" y2="65.5171" gradientUnits="userSpaceOnUse">
<stop stop-color="#9DA1B8"/>
<stop offset="1" stop-color="#9DA1B8"/>
</linearGradient>
<linearGradient id="paint19_linear_423_1258" x1="15.2617" y1="12.842" x2="161.857" y2="65.5171" gradientUnits="userSpaceOnUse">
<stop stop-color="#9DA1B8"/>
<stop offset="1" stop-color="#9DA1B8"/>
</linearGradient>
<linearGradient id="paint20_linear_423_1258" x1="15.2617" y1="12.842" x2="161.857" y2="65.5171" gradientUnits="userSpaceOnUse">
<stop stop-color="#9DA1B8"/>
<stop offset="1" stop-color="#9DA1B8"/>
</linearGradient>
<linearGradient id="paint21_linear_423_1258" x1="15.2617" y1="12.842" x2="161.857" y2="65.5171" gradientUnits="userSpaceOnUse">
<stop stop-color="#9DA1B8"/>
<stop offset="1" stop-color="#9DA1B8"/>
</linearGradient>
<linearGradient id="paint22_linear_423_1258" x1="15.2617" y1="12.842" x2="161.857" y2="65.5171" gradientUnits="userSpaceOnUse">
<stop stop-color="#9DA1B8"/>
<stop offset="1" stop-color="#9DA1B8"/>
</linearGradient>
<linearGradient id="paint23_linear_423_1258" x1="15.2617" y1="12.842" x2="161.857" y2="65.5171" gradientUnits="userSpaceOnUse">
<stop stop-color="#9DA1B8"/>
<stop offset="1" stop-color="#9DA1B8"/>
</linearGradient>
<clipPath id="clip0_423_1258">
<rect width="183" height="60" fill="white"/>
</clipPath>
</defs>
</svg>
