<svg width="207" height="62" viewBox="0 0 207 62" fill="none" xmlns="http://www.w3.org/2000/svg">
<g clip-path="url(#clip0_422_807)">
<path d="M199.064 1.56001C202.612 1.56001 205.486 4.44268 205.486 8.00001V54C205.486 57.5573 202.612 60.44 199.064 60.44H7.9352C4.38785 60.44 1.51327 57.5573 1.51327 54V8.00001C1.51327 4.44268 4.38785 1.56001 7.9352 1.56001H199.064ZM199.064 0.333344H7.9352C3.73036 0.333344 0.290039 3.78334 0.290039 8.00001V54C0.290039 58.2167 3.73036 61.6667 7.9352 61.6667H199.064C203.269 61.6667 206.709 58.2167 206.709 54V8.00001C206.709 3.78334 203.269 0.333344 199.064 0.333344Z" fill="#A6A6A6"/>
<path d="M72.7967 16.0347C72.7967 17.3227 72.4145 18.35 71.65 19.1013C70.7937 20.006 69.6622 20.466 68.2861 20.466C66.9558 20.466 65.8396 20.006 64.9069 19.086C63.9742 18.166 63.5155 17.016 63.5155 15.6667C63.5155 14.302 63.9742 13.1673 64.9069 12.2473C65.8396 11.3273 66.9558 10.8673 68.2861 10.8673C68.9436 10.8673 69.5705 10.99 70.1668 11.2507C70.7631 11.5113 71.2371 11.8487 71.6041 12.278L70.7937 13.0907C70.1821 12.37 69.3564 12.002 68.2861 12.002C67.3228 12.002 66.4818 12.3393 65.7785 13.0293C65.0751 13.704 64.7234 14.5933 64.7234 15.682C64.7234 16.7707 65.0751 17.66 65.7785 18.3347C66.4818 19.0093 67.3228 19.362 68.2861 19.362C69.3105 19.362 70.1668 19.0247 70.8549 18.3347C71.2983 17.89 71.5582 17.2613 71.6194 16.464H68.2861V15.36H72.7356C72.7662 15.59 72.7967 15.82 72.7967 16.0347Z" fill="url(#paint0_linear_422_807)"/>
<path d="M79.8456 12.2013H75.6713V15.1147H79.4327V16.2187H75.6713V19.132H79.8456V20.2667H74.494V11.0667H79.8456V12.2013Z" fill="url(#paint1_linear_422_807)"/>
<path d="M84.8149 20.2667H83.6376V12.2013H81.0688V11.0667H87.3684V12.2013H84.7996V20.2667H84.8149Z" fill="url(#paint2_linear_422_807)"/>
<path d="M91.9402 20.2667V11.0667H93.1176V20.2667H91.9402Z" fill="url(#paint3_linear_422_807)"/>
<path d="M98.3469 20.2667H97.1695V12.2013H94.6007V11.0667H100.9V12.2013H98.3316V20.2667H98.3469Z" fill="url(#paint4_linear_422_807)"/>
<path d="M112.842 19.0707C111.94 20.006 110.824 20.466 109.478 20.466C108.133 20.466 107.016 20.006 106.114 19.0707C105.212 18.1353 104.769 17.0007 104.769 15.6667C104.769 14.3327 105.212 13.1827 106.114 12.2627C107.016 11.3273 108.133 10.8673 109.478 10.8673C110.808 10.8673 111.925 11.3273 112.842 12.2627C113.744 13.198 114.203 14.3327 114.203 15.6667C114.188 17.016 113.744 18.1507 112.842 19.0707ZM106.986 18.304C107.659 18.994 108.5 19.3313 109.478 19.3313C110.457 19.3313 111.298 18.994 111.971 18.304C112.643 17.614 112.995 16.74 112.995 15.6667C112.995 14.5933 112.659 13.7193 111.971 13.0293C111.298 12.3393 110.457 12.002 109.478 12.002C108.5 12.002 107.659 12.3393 106.986 13.0293C106.313 13.7193 105.961 14.5933 105.961 15.6667C105.961 16.74 106.313 17.614 106.986 18.304Z" fill="url(#paint5_linear_422_807)"/>
<path d="M115.854 20.2667V11.0667H117.292L121.756 18.2273H121.802L121.756 16.4487V11.0667H122.934V20.2667H121.71L117.047 12.7687H117.001L117.047 14.5473V20.2667H115.854Z" fill="url(#paint6_linear_422_807)"/>
<path d="M104.478 33.6833C100.885 33.6833 97.9493 36.428 97.9493 40.2C97.9493 43.9567 100.885 46.7167 104.478 46.7167C108.072 46.7167 111.007 43.9567 111.007 40.2C111.007 36.428 108.072 33.6833 104.478 33.6833ZM104.478 44.156C102.506 44.156 100.809 42.5307 100.809 40.2C100.809 37.854 102.506 36.244 104.478 36.244C106.451 36.244 108.148 37.854 108.148 40.2C108.148 42.5307 106.435 44.156 104.478 44.156ZM90.2277 33.6833C86.6345 33.6833 83.6987 36.428 83.6987 40.2C83.6987 43.9567 86.6345 46.7167 90.2277 46.7167C93.8209 46.7167 96.7567 43.9567 96.7567 40.2C96.7567 36.428 93.8209 33.6833 90.2277 33.6833ZM90.2277 44.156C88.2553 44.156 86.558 42.5307 86.558 40.2C86.558 37.854 88.2553 36.244 90.2277 36.244C92.2002 36.244 93.8974 37.854 93.8974 40.2C93.8974 42.5307 92.2002 44.156 90.2277 44.156ZM73.286 35.692V38.452H79.8915C79.6927 40.0007 79.1728 41.1507 78.393 41.9327C77.4297 42.8987 75.9313 43.9567 73.3013 43.9567C69.2341 43.9567 66.0537 40.6753 66.0537 36.5967C66.0537 32.518 69.2341 29.2367 73.3013 29.2367C75.4878 29.2367 77.0933 30.0953 78.2707 31.2147L80.2125 29.2673C78.5612 27.688 76.3747 26.4767 73.286 26.4767C67.7204 26.4767 63.0415 31.0153 63.0415 36.612C63.0415 42.1933 67.7204 46.7473 73.286 46.7473C76.2982 46.7473 78.5612 45.766 80.3349 43.9107C82.1544 42.086 82.7202 39.51 82.7202 37.44C82.7202 36.796 82.6743 36.198 82.5673 35.7073H73.286V35.692ZM142.566 37.8387C142.031 36.382 140.38 33.6833 137.001 33.6833C133.652 33.6833 130.869 36.3207 130.869 40.2C130.869 43.8493 133.622 46.7167 137.322 46.7167C140.304 46.7167 142.031 44.892 142.735 43.834L140.518 42.3467C139.784 43.4353 138.774 44.156 137.322 44.156C135.869 44.156 134.83 43.4813 134.172 42.178L142.872 38.5747L142.566 37.8387ZM133.698 40.016C133.622 37.5013 135.64 36.2133 137.093 36.2133C138.224 36.2133 139.187 36.7807 139.508 37.5933L133.698 40.016ZM126.634 46.3333H129.493V27.1667H126.634V46.3333ZM121.955 35.14H121.848C121.206 34.3733 119.983 33.6833 118.423 33.6833C115.166 33.6833 112.185 36.5507 112.185 40.2307C112.185 43.88 115.166 46.732 118.423 46.732C119.967 46.732 121.206 46.042 121.848 45.2447H121.94V46.18C121.94 48.6793 120.61 50.0133 118.469 50.0133C116.726 50.0133 115.64 48.756 115.197 47.698L112.704 48.7407C113.423 50.4733 115.319 52.5893 118.469 52.5893C121.818 52.5893 124.646 50.6113 124.646 45.7967V34.082H121.94V35.14H121.955ZM118.668 44.156C116.695 44.156 115.044 42.5 115.044 40.2307C115.044 37.9307 116.695 36.2593 118.668 36.2593C120.61 36.2593 122.139 37.946 122.139 40.2307C122.154 42.5 120.625 44.156 118.668 44.156ZM155.961 27.1667H149.126V46.3333H151.985V39.0653H155.976C159.141 39.0653 162.245 36.7653 162.245 33.116C162.245 29.4667 159.111 27.1667 155.961 27.1667ZM156.022 36.3973H151.97V29.8193H156.022C158.163 29.8193 159.371 31.598 159.371 33.1007C159.371 34.6033 158.163 36.3973 156.022 36.3973ZM173.667 33.6527C171.603 33.6527 169.462 34.5727 168.575 36.5813L171.114 37.6393C171.649 36.5813 172.658 36.2287 173.713 36.2287C175.181 36.2287 176.694 37.118 176.71 38.6973V38.8967C176.19 38.6053 175.089 38.1607 173.728 38.1607C170.991 38.1607 168.224 39.6633 168.224 42.4693C168.224 45.03 170.456 46.686 172.964 46.686C174.875 46.686 175.945 45.8273 176.603 44.8153H176.694V46.3027H179.447V38.958C179.462 35.554 176.924 33.6527 173.667 33.6527ZM173.315 44.156C172.383 44.156 171.083 43.6807 171.083 42.5307C171.083 41.0587 172.704 40.4913 174.11 40.4913C175.364 40.4913 175.961 40.7673 176.71 41.1353C176.496 42.8987 174.967 44.156 173.315 44.156ZM189.492 34.0667L186.22 42.3773H186.129L182.734 34.0667H179.661L184.752 45.6893L181.847 52.1447H184.829L192.673 34.0667H189.492ZM163.805 46.3333H166.664V27.1667H163.805V46.3333Z" fill="url(#paint7_linear_422_807)"/>
<path d="M16.2531 11.8947C15.8097 12.37 15.5498 13.106 15.5498 14.0413V47.9587C15.5498 48.9093 15.8097 49.6453 16.2531 50.1053L16.3602 50.2127L35.3049 31.23V30.77L16.3602 11.7873L16.2531 11.8947Z" fill="url(#paint8_linear_422_807)"/>
<path d="M42.2889 37.5627L35.974 31.23V30.77L42.2889 24.4373L42.4265 24.514L49.9035 28.7767C52.0442 29.988 52.0442 31.9813 49.9035 33.208L42.4265 37.4707L42.2889 37.5627Z" fill="url(#paint9_linear_422_807)"/>
<path d="M41.7574 39.004L35.3049 32.5333L16.2531 51.6387C16.9565 52.39 18.1186 52.482 19.4335 51.7307L41.7574 39.004Z" fill="url(#paint10_linear_422_807)"/>
<path d="M41.7574 22.996L19.4182 10.2693C18.1033 9.51801 16.9412 9.61001 16.2379 10.3613L35.3049 29.4667L41.7574 22.996Z" fill="url(#paint11_linear_422_807)"/>
<path d="M199.064 1.56001C202.612 1.56001 205.486 4.44268 205.486 8.00001V54C205.486 57.5573 202.612 60.44 199.064 60.44H7.9352C4.38785 60.44 1.51327 57.5573 1.51327 54V8.00001C1.51327 4.44268 4.38785 1.56001 7.9352 1.56001H199.064ZM199.064 0.333344H7.9352C3.73036 0.333344 0.290039 3.78334 0.290039 8.00001V54C0.290039 58.2167 3.73036 61.6667 7.9352 61.6667H199.064C203.269 61.6667 206.709 58.2167 206.709 54V8.00001C206.709 3.78334 203.269 0.333344 199.064 0.333344Z" fill="url(#paint12_linear_422_807)"/>
<g clip-path="url(#clip1_422_807)">
<path d="M182.741 28.1901C180.876 26.2675 178.487 24.9356 175.871 24.3601C173.95 23.8774 171.981 23.6157 170.001 23.5801V18.2801C169.969 17.3817 169.584 16.5323 168.928 15.9177C168.272 15.303 167.399 14.9731 166.501 15.0001C165.602 14.9731 164.73 15.303 164.074 15.9177C163.418 16.5323 163.032 17.3817 163.001 18.2801V28.2801L161.401 26.7001C160.696 26.0087 159.748 25.6214 158.761 25.6214C157.773 25.6214 156.825 26.0087 156.121 26.7001C155.768 27.0412 155.486 27.4498 155.294 27.9015C155.102 28.3533 155.002 28.8391 155.001 29.3301C154.982 30.2821 155.342 31.2026 156.001 31.8901L160.661 37.4101C160.885 38.8205 161.37 40.1768 162.091 41.4101C162.617 42.3584 163.292 43.216 164.091 43.9501V45.8701C164.088 46.1438 164.189 46.4084 164.375 46.6093C164.561 46.8102 164.817 46.9322 165.091 46.9501H179.001C179.274 46.9322 179.53 46.8102 179.716 46.6093C179.902 46.4084 180.004 46.1438 180.001 45.8701V43.1701C181.966 40.8304 183.03 37.8653 183.001 34.8101V28.8101C182.988 28.5796 182.896 28.3605 182.741 28.1901Z" fill="white"/>
<path d="M182.741 28.1901C180.876 26.2675 178.487 24.9356 175.871 24.3601C173.95 23.8774 171.981 23.6157 170.001 23.5801V18.2801C169.969 17.3817 169.584 16.5323 168.928 15.9177C168.272 15.303 167.399 14.9731 166.501 15.0001C165.602 14.9731 164.73 15.303 164.074 15.9177C163.418 16.5323 163.032 17.3817 163.001 18.2801V28.2801L161.401 26.7001C160.696 26.0087 159.748 25.6214 158.761 25.6214C157.773 25.6214 156.825 26.0087 156.121 26.7001C155.768 27.0412 155.486 27.4498 155.294 27.9015C155.102 28.3533 155.002 28.8391 155.001 29.3301C154.982 30.2821 155.342 31.2026 156.001 31.8901L160.661 37.4101C160.885 38.8205 161.37 40.1768 162.091 41.4101C162.617 42.3584 163.292 43.216 164.091 43.9501V45.8701C164.088 46.1438 164.189 46.4084 164.375 46.6093C164.561 46.8102 164.817 46.9322 165.091 46.9501H179.001C179.274 46.9322 179.53 46.8102 179.716 46.6093C179.902 46.4084 180.004 46.1438 180.001 45.8701V43.1701C181.966 40.8304 183.03 37.8653 183.001 34.8101V28.8101C182.988 28.5796 182.896 28.3605 182.741 28.1901ZM181.001 34.8601C181.065 37.5188 180.138 40.1064 178.401 42.1201C178.18 42.2999 178.037 42.5577 178.001 42.8401V45.0001H166.141V43.5201C166.141 43.3563 166.101 43.1949 166.024 43.0502C165.947 42.9055 165.836 42.7818 165.701 42.6901C164.951 42.0757 164.332 41.3174 163.881 40.4601C163.244 39.3814 162.835 38.1832 162.681 36.9401C162.67 36.7237 162.589 36.5166 162.451 36.3501L157.531 30.5301C157.37 30.3719 157.243 30.1835 157.156 29.9758C157.069 29.7681 157.025 29.5452 157.025 29.3201C157.025 29.0949 157.069 28.872 157.156 28.6643C157.243 28.4566 157.37 28.2682 157.531 28.1101C157.86 27.7858 158.304 27.604 158.766 27.604C159.228 27.604 159.671 27.7858 160.001 28.1101L163.001 31.1101V34.2501L165.001 33.2501V18.2801C165.036 17.914 165.212 17.576 165.492 17.3372C165.772 17.0985 166.134 16.9776 166.501 17.0001C166.868 16.9776 167.229 17.0985 167.509 17.3372C167.789 17.576 167.965 17.914 168.001 18.2801V30.0801L170.001 30.5101V25.5901C170.84 25.6066 171.678 25.6667 172.511 25.7701V31.0001L174.111 31.3501V26.0001C174.521 26.0801 174.941 26.1701 175.371 26.2801C175.889 26.4157 176.4 26.5793 176.901 26.7701V31.9201L178.501 32.2701V27.5001C179.41 27.9589 180.251 28.5411 181.001 29.2301V34.8601Z" fill="black"/>
</g>
</g>
<defs>
<linearGradient id="paint0_linear_422_807" x1="0.290039" y1="0.333344" x2="206.803" y2="61.3507" gradientUnits="userSpaceOnUse">
<stop stop-color="#9DA1B8"/>
<stop offset="1" stop-color="#9DA1B8"/>
</linearGradient>
<linearGradient id="paint1_linear_422_807" x1="0.290039" y1="0.333344" x2="206.803" y2="61.3507" gradientUnits="userSpaceOnUse">
<stop stop-color="#9DA1B8"/>
<stop offset="1" stop-color="#9DA1B8"/>
</linearGradient>
<linearGradient id="paint2_linear_422_807" x1="0.290039" y1="0.333344" x2="206.803" y2="61.3507" gradientUnits="userSpaceOnUse">
<stop stop-color="#9DA1B8"/>
<stop offset="1" stop-color="#9DA1B8"/>
</linearGradient>
<linearGradient id="paint3_linear_422_807" x1="0.290039" y1="0.333344" x2="206.803" y2="61.3507" gradientUnits="userSpaceOnUse">
<stop stop-color="#9DA1B8"/>
<stop offset="1" stop-color="#9DA1B8"/>
</linearGradient>
<linearGradient id="paint4_linear_422_807" x1="0.290039" y1="0.333344" x2="206.803" y2="61.3507" gradientUnits="userSpaceOnUse">
<stop stop-color="#9DA1B8"/>
<stop offset="1" stop-color="#9DA1B8"/>
</linearGradient>
<linearGradient id="paint5_linear_422_807" x1="0.290039" y1="0.333344" x2="206.803" y2="61.3507" gradientUnits="userSpaceOnUse">
<stop stop-color="#9DA1B8"/>
<stop offset="1" stop-color="#9DA1B8"/>
</linearGradient>
<linearGradient id="paint6_linear_422_807" x1="0.290039" y1="0.333344" x2="206.803" y2="61.3507" gradientUnits="userSpaceOnUse">
<stop stop-color="#9DA1B8"/>
<stop offset="1" stop-color="#9DA1B8"/>
</linearGradient>
<linearGradient id="paint7_linear_422_807" x1="0.290039" y1="0.333344" x2="206.803" y2="61.3507" gradientUnits="userSpaceOnUse">
<stop stop-color="#9DA1B8"/>
<stop offset="1" stop-color="#9DA1B8"/>
</linearGradient>
<linearGradient id="paint8_linear_422_807" x1="0.290039" y1="0.333344" x2="206.803" y2="61.3507" gradientUnits="userSpaceOnUse">
<stop stop-color="#9DA1B8"/>
<stop offset="1" stop-color="#9DA1B8"/>
</linearGradient>
<linearGradient id="paint9_linear_422_807" x1="0.290039" y1="0.333344" x2="206.803" y2="61.3507" gradientUnits="userSpaceOnUse">
<stop stop-color="#9DA1B8"/>
<stop offset="1" stop-color="#9DA1B8"/>
</linearGradient>
<linearGradient id="paint10_linear_422_807" x1="0.290039" y1="0.333344" x2="206.803" y2="61.3507" gradientUnits="userSpaceOnUse">
<stop stop-color="#9DA1B8"/>
<stop offset="1" stop-color="#9DA1B8"/>
</linearGradient>
<linearGradient id="paint11_linear_422_807" x1="0.290039" y1="0.333344" x2="206.803" y2="61.3507" gradientUnits="userSpaceOnUse">
<stop stop-color="#9DA1B8"/>
<stop offset="1" stop-color="#9DA1B8"/>
</linearGradient>
<linearGradient id="paint12_linear_422_807" x1="0.290039" y1="0.333344" x2="206.803" y2="61.3507" gradientUnits="userSpaceOnUse">
<stop stop-color="#9DA1B8"/>
<stop offset="1" stop-color="#9DA1B8"/>
</linearGradient>
<clipPath id="clip0_422_807">
<rect width="207" height="62" fill="white"/>
</clipPath>
<clipPath id="clip1_422_807">
<rect width="36" height="36" fill="white" transform="translate(152 13)"/>
</clipPath>
</defs>
</svg>
