<svg width="207" height="62" viewBox="0 0 207 62" fill="none" xmlns="http://www.w3.org/2000/svg">
<path d="M67.9659 39.3548L64.5317 30.0571L61.1135 39.3548H67.9659ZM55.9941 46.2532L63.1132 27.5617H65.9662L73.0852 46.2532H70.4563L68.7551 41.4548H60.3562L58.6551 46.2532H55.9941ZM77.9219 44.1532V51.586H75.6236V32.2319H77.9219V34.348C78.4072 33.5144 79.0151 32.8999 79.751 32.4991C80.4976 32.0877 81.3775 31.8846 82.396 31.8846C84.0971 31.8846 85.4783 32.5632 86.5395 33.9205C87.6113 35.267 88.1446 37.0464 88.1446 39.2586C88.1446 41.4601 87.6113 43.2342 86.5395 44.5967C85.4783 45.9433 84.0971 46.6166 82.396 46.6166C81.3775 46.6166 80.4976 46.4189 79.751 46.0181C79.0151 45.6067 78.4072 44.9815 77.9219 44.1532ZM85.7503 39.2586C85.7503 37.5647 85.3983 36.2342 84.6944 35.267C84.0118 34.2999 83.0626 33.8136 81.8414 33.8136C80.6256 33.8136 79.6604 34.2999 78.9565 35.267C78.2632 36.2342 77.9166 37.5647 77.9166 39.2586C77.9166 40.9525 78.2632 42.283 78.9565 43.2502C79.6604 44.2067 80.6203 44.6876 81.8414 44.6876C83.0573 44.6876 84.0118 44.2067 84.6944 43.2502C85.3983 42.283 85.7503 40.9525 85.7503 39.2586ZM94.1812 44.1532V51.586H91.8668V32.2319H94.1812V34.348C94.6664 33.5144 95.269 32.8999 95.9943 32.4991C96.7408 32.0877 97.626 31.8846 98.6552 31.8846C100.346 31.8846 101.721 32.5632 102.783 33.9205C103.855 35.267 104.388 37.0464 104.388 39.2586C104.388 41.4601 103.855 43.2342 102.783 44.5967C101.721 45.9433 100.346 46.6166 98.6552 46.6166C97.626 46.6166 96.7408 46.4189 95.9943 46.0181C95.269 45.6067 94.6611 44.9815 94.1812 44.1532ZM101.993 39.2586C101.993 37.5647 101.642 36.2342 100.938 35.267C100.255 34.2999 99.3058 33.8136 98.0846 33.8136C96.8688 33.8136 95.9036 34.2999 95.1997 35.267C94.5171 36.2342 94.1758 37.5647 94.1758 39.2586C94.1758 40.9525 94.5171 42.283 95.1997 43.2502C95.9036 44.2067 96.8635 44.6876 98.0846 44.6876C99.3005 44.6876 100.255 44.2067 100.938 43.2502C101.642 42.283 101.993 40.9525 101.993 39.2586ZM120.93 43.5868V38.5693H116.818V36.4853H123.436V44.5219C122.46 45.2166 121.383 45.7402 120.204 46.0983C119.037 46.4456 117.789 46.6166 116.456 46.6166C113.533 46.6166 111.251 45.7616 109.603 44.0571C107.966 42.3525 107.145 39.9746 107.145 36.9235C107.145 33.8724 107.966 31.4945 109.603 29.79C111.251 28.0747 113.539 27.2144 116.456 27.2144C117.671 27.2144 118.823 27.3694 119.906 27.674C121.01 27.9678 122.023 28.4114 122.945 28.9991V31.6976C122.012 30.8961 121.02 30.2976 119.97 29.8968C118.919 29.4961 117.815 29.2984 116.664 29.2984C114.387 29.2984 112.669 29.9342 111.512 31.206C110.376 32.4884 109.811 34.396 109.811 36.9182C109.811 39.4403 110.376 41.3426 111.512 42.6143C112.669 43.8861 114.387 44.5219 116.664 44.5219C117.554 44.5219 118.354 44.4471 119.058 44.3029C119.751 44.1532 120.375 43.9128 120.93 43.5868ZM136.512 39.1945H134.229C132.368 39.1945 131.083 39.4082 130.368 39.841C129.654 40.2632 129.297 40.9899 129.297 42.0212C129.297 42.8441 129.563 43.496 130.102 43.9769C130.635 44.4525 131.366 44.6876 132.294 44.6876C133.573 44.6876 134.597 44.2334 135.365 43.3303C136.133 42.4273 136.517 41.2197 136.517 39.7128V39.1945H136.512ZM138.81 38.2487V46.2532H136.512V44.1212C135.989 44.9761 135.333 45.6067 134.56 46.0181C133.771 46.4189 132.811 46.6166 131.675 46.6166C130.246 46.6166 129.105 46.2158 128.257 45.4143C127.414 44.6021 126.998 43.5174 126.998 42.1601C126.998 40.5945 127.521 39.4029 128.571 38.5907C129.633 37.7892 131.206 37.3884 133.296 37.3884H136.512V37.1693C136.512 36.106 136.165 35.2831 135.472 34.706C134.779 34.1289 133.803 33.8403 132.544 33.8403C131.744 33.8403 130.971 33.9365 130.214 34.1235C129.457 34.3105 128.726 34.6044 128.022 34.9892V32.8571C128.865 32.5312 129.681 32.2907 130.48 32.1304C131.27 31.9594 132.032 31.8793 132.779 31.8793C134.805 31.8793 136.32 32.4029 137.317 33.4556C138.314 34.5189 138.81 36.1113 138.81 38.2487ZM143.551 46.2532V26.7762H145.849V46.2532H143.551ZM150.659 46.2532V26.7762H152.957V46.2532H150.659ZM169.67 38.6601V39.7983H159.101C159.197 41.3746 159.666 42.5876 160.519 43.4265C161.378 44.2494 162.572 44.6555 164.097 44.6555C164.977 44.6555 165.83 44.5486 166.652 44.3403C167.494 44.1212 168.315 43.7952 169.126 43.3624V45.5425C168.305 45.8899 167.462 46.157 166.588 46.3494C165.729 46.5257 164.849 46.6166 163.959 46.6166C161.73 46.6166 159.965 45.9647 158.647 44.6609C157.346 43.3677 156.696 41.6097 156.696 39.3869C156.696 37.0838 157.314 35.2617 158.557 33.9258C159.794 32.5686 161.468 31.89 163.564 31.89C165.447 31.89 166.929 32.4991 168.022 33.7228C169.121 34.9304 169.67 36.5762 169.67 38.6601ZM159.165 37.9975H167.372C167.35 36.7365 166.993 35.7266 166.3 34.9678C165.617 34.2197 164.711 33.8457 163.575 33.8457C162.295 33.8457 161.266 34.209 160.487 34.9357C159.719 35.6625 159.282 36.6831 159.165 37.9975ZM181.455 32.0129L181.471 34.38C181.21 34.2304 180.927 34.1235 180.618 34.0487C180.309 33.9739 179.983 33.9365 179.626 33.9365C178.325 33.9365 177.322 34.364 176.618 35.2136C175.925 36.0579 175.579 37.2708 175.579 38.8578V46.2479H173.28V32.2319H175.579V34.4121C176.064 33.5571 176.693 32.9266 177.472 32.5151C178.25 32.093 179.189 31.8846 180.293 31.8846C180.453 31.8846 180.629 31.9006 180.826 31.9327C181.012 31.9434 181.226 31.9701 181.455 32.0129ZM195.853 32.2319L189.71 47.5463C189.059 49.2188 188.425 50.3143 187.806 50.8272C187.188 51.3349 186.361 51.586 185.332 51.586H183.487V49.6624H184.841C185.471 49.6624 185.966 49.5074 186.324 49.2028C186.67 48.9089 187.054 48.1982 187.476 47.0708L187.902 46.0288L182.228 32.2319H184.671L189.049 43.1861L193.411 32.2319H195.853Z" fill="#9DA1B8"/>
<path d="M55.8506 20.9945V11.3496H61.9298V12.4396H57.1411V15.2984H61.7271V16.4045H57.1411V19.8938H62.0578V20.9999H55.8506V20.9945ZM66.7238 15.8488L63.7322 11.3496H65.1347L67.5291 14.935L69.9234 11.3496H71.3259L68.2383 15.977L71.5285 20.9945H70.126L67.4331 16.8907L64.6921 20.9945H63.2896L66.7238 15.8488ZM76.1733 12.4236H74.5361V16.0411H76.1733C76.7812 16.0411 77.2558 15.8862 77.5917 15.5816C77.917 15.2663 78.0823 14.8121 78.0823 14.2243C78.0823 13.6579 77.917 13.2144 77.5917 12.8992C77.2558 12.5839 76.7812 12.4236 76.1733 12.4236ZM73.2456 20.9945V11.3496H76.1733C77.2558 11.3496 78.0717 11.59 78.6316 12.0763C79.1755 12.5732 79.4528 13.2839 79.4528 14.2243C79.4528 15.1808 79.1809 15.9022 78.6316 16.3885C78.077 16.8747 77.2558 17.1152 76.1733 17.1152H74.5361V20.9999H73.2456V20.9945ZM81.2019 20.9945V11.3496H82.5084V19.8884H87.2011V20.9945H81.2019ZM92.0059 12.2366C91.062 12.2366 90.3047 12.5892 89.7395 13.2946C89.1956 13.9999 88.9183 14.9617 88.9183 16.1854C88.9183 17.393 89.1902 18.3602 89.7395 19.0762C90.3047 19.7816 91.062 20.1342 92.0059 20.1342C92.9497 20.1342 93.6963 19.7816 94.2402 19.0762C94.7948 18.3602 95.0775 17.3984 95.0775 16.1854C95.0775 14.9671 94.8002 13.9999 94.2402 13.2946C93.6963 12.5839 92.9497 12.2366 92.0059 12.2366ZM92.0059 11.1786C93.3497 11.1786 94.4269 11.6328 95.2374 12.5358C96.048 13.4389 96.448 14.6572 96.448 16.1801C96.448 17.7083 96.0427 18.9213 95.2374 19.8243C94.4269 20.7274 93.3497 21.1816 92.0059 21.1816C90.6514 21.1816 89.5635 20.7274 88.7423 19.8243C87.9317 18.9213 87.5318 17.7029 87.5318 16.1801C87.5318 14.6518 87.9371 13.4389 88.7423 12.5358C89.5635 11.6274 90.6514 11.1786 92.0059 11.1786ZM103.05 16.4633C103.332 16.5594 103.604 16.7625 103.871 17.0778C104.132 17.3823 104.399 17.8098 104.676 18.3549L105.999 20.9892H104.596L103.37 18.5098C103.044 17.8686 102.735 17.4411 102.442 17.2327C102.138 17.0243 101.727 16.9175 101.215 16.9175H99.7968V20.9892H98.4903V11.3496H101.434C102.538 11.3496 103.359 11.5793 103.908 12.0442C104.442 12.4984 104.714 13.1931 104.714 14.1282C104.714 14.7373 104.57 15.2449 104.287 15.6457C103.994 16.0411 103.588 16.319 103.05 16.4633ZM101.429 12.4236H99.7915V15.8488H101.429C102.058 15.8488 102.532 15.6991 102.847 15.4053C103.172 15.1114 103.338 14.6839 103.338 14.1282C103.338 13.5618 103.172 13.1343 102.847 12.8511C102.532 12.5679 102.058 12.4236 101.429 12.4236ZM107.668 20.9945V11.3496H113.747V12.4396H108.974V15.2984H113.56V16.4045H108.974V19.8938H113.875V20.9999H107.668V20.9945ZM120.205 20.9945V11.3496H121.511V20.9945H120.205ZM122.775 12.4396V11.3496H130.918V12.4396H127.5V20.9945H126.193V12.4396H122.775ZM140.277 12.2366C139.333 12.2366 138.581 12.5892 138.027 13.2946C137.472 13.9999 137.189 14.9617 137.189 16.1854C137.189 17.393 137.467 18.3602 138.027 19.0762C138.581 19.7816 139.333 20.1342 140.277 20.1342C141.221 20.1342 141.973 19.7816 142.527 19.0762C143.071 18.3602 143.348 17.3984 143.348 16.1854C143.348 14.9671 143.077 13.9999 142.527 13.2946C141.973 12.5839 141.221 12.2366 140.277 12.2366ZM140.277 11.1786C141.631 11.1786 142.714 11.6328 143.524 12.5358C144.335 13.4389 144.735 14.6572 144.735 16.1801C144.735 17.7083 144.33 18.9213 143.524 19.8243C142.719 20.7274 141.631 21.1816 140.277 21.1816C138.922 21.1816 137.84 20.7274 137.029 19.8243C136.219 18.9213 135.819 17.7029 135.819 16.1801C135.819 14.6518 136.224 13.4389 137.029 12.5358C137.84 11.6274 138.922 11.1786 140.277 11.1786ZM146.767 20.9945V11.3496H148.516L152.787 19.4182V11.3496H154.062V20.9945H152.297L148.025 12.9259V20.9945H146.767Z" fill="#9DA1B8"/>
<path fill-rule="evenodd" clip-rule="evenodd" d="M22.2333 11.3816H39.3724C47.4567 11.3816 50.4003 14.3312 50.4003 22.4319V39.6059C50.4003 47.7066 47.4407 50.6722 39.3724 50.6722H22.2333C14.1491 50.6722 11.1895 47.7066 11.1895 39.6059V22.4319C11.1895 14.3312 14.1491 11.3816 22.2333 11.3816ZM27.449 36.1487L27.9236 35.0907H30.2593L30.7179 36.1487H31.8058L29.5554 31.0189H28.6435L26.3932 36.1487H27.449ZM29.87 34.1609H28.2969L29.0808 32.3281L29.87 34.1609ZM46.0386 31.0189H44.9987V36.1487H46.0386V31.0189ZM43.7722 35.2189H40.9193V33.9525H42.8124V33.0067H40.9193V31.9647H43.6602V31.0189H39.8954V36.1487H43.7722V35.2189ZM39.0582 31.0189H37.9703L36.8398 34.5563L35.672 31.0189H34.8187L33.6669 34.5563L32.531 31.0189H31.4112L33.2083 36.1647H34.0615L35.2293 32.7876L36.3972 36.1647H37.2771L39.0582 31.0189ZM25.8599 31.0189H24.82V33.9632C24.82 34.7968 24.4094 35.2563 23.6522 35.2563C22.895 35.2563 22.4843 34.7968 22.4843 33.9311V31.0243H21.4445V33.9579C21.4445 35.4059 22.2497 36.2449 23.6362 36.2449C25.0547 36.2449 25.8599 35.3953 25.8599 33.9258V31.0189ZM19.9993 31.0189H18.9595V33.0869H16.6131V31.0189H15.5732V36.1647H16.6131V34.0647H18.9595V36.1647H19.9993V31.0189ZM24.2814 17.9488C24.2814 21.5503 27.1931 24.4839 30.8033 24.4839C34.3975 24.4839 37.3251 21.545 37.3251 17.9488H36.4132C36.4132 21.0427 33.8909 23.5541 30.8033 23.5541C27.7157 23.5541 25.1933 21.0427 25.1933 17.9488H24.2814Z" fill="#9DA1B8"/>
<path d="M199.16 1.22667C202.714 1.22667 205.594 4.10933 205.594 7.66667V53.6667C205.594 57.224 202.714 60.1067 199.16 60.1067H7.65998C4.10575 60.1067 1.2256 57.224 1.2256 53.6667V7.66667C1.2256 4.10933 4.10575 1.22667 7.65998 1.22667H199.16ZM199.16 0H7.65998C3.44699 0 0 3.45 0 7.66667V53.6667C0 57.8833 3.44699 61.3333 7.65998 61.3333H199.16C203.373 61.3333 206.82 57.8833 206.82 53.6667V7.66667C206.82 3.45 203.373 0 199.16 0Z" fill="#A6A6A6"/>
</svg>
