<svg width="56" height="56" viewBox="0 0 56 56" fill="none" xmlns="http://www.w3.org/2000/svg">
<g clip-path="url(#clip0_422_1115)">
<path d="M0.175972 11.3655C3.10473 19.7882 9.27022 29.3549 17.9559 38.0415C26.6417 46.7282 36.2073 52.8945 44.629 55.8235C45.7729 56.2195 47.0362 55.9367 47.8972 55.0818L53.7233 49.2551L55.0808 47.8974C56.3064 46.6717 56.3064 44.6791 55.0808 43.4534L46.062 34.4399C44.8365 33.2142 42.8441 33.2142 41.6186 34.4399L39.1738 36.885C37.9043 38.1547 35.8805 38.2804 34.4602 37.1741C31.6508 34.9867 28.8666 32.5291 26.1704 29.8325C23.4741 27.136 21.0168 24.3515 18.8296 21.5418C17.7234 20.1213 17.8491 18.1036 19.1187 16.8276L21.5635 14.3825C22.7891 13.1568 22.7891 11.1643 21.5635 9.93862L12.5447 0.918781C11.3192 -0.306911 9.32685 -0.306911 8.10129 0.918781L6.74375 2.27647L0.917653 8.10322C0.0628444 8.95813 -0.219976 10.2215 0.175972 11.3655Z" fill="white"/>
</g>
<defs>
<clipPath id="clip0_422_1115">
<rect width="56" height="56" fill="white" transform="translate(0 -0.000488281)"/>
</clipPath>
</defs>
</svg>
