<svg width="20" height="20" viewBox="0 0 20 20" fill="none" xmlns="http://www.w3.org/2000/svg">
<path d="M0.0628474 4.06006C1.10883 7.06783 3.3108 10.4841 6.41284 13.5862C9.51489 16.6882 12.9312 18.8902 15.939 19.9361C16.3475 20.0776 16.7986 19.9766 17.1062 19.6713L19.1869 17.5905L19.6717 17.1057C20.1094 16.668 20.1094 15.9565 19.6717 15.5188L16.4507 12.3C16.013 11.8623 15.3015 11.8623 14.8638 12.3L13.9907 13.1731C13.5373 13.6266 12.8145 13.6714 12.3072 13.2764C11.3039 12.4953 10.3095 11.6177 9.34657 10.6547C8.38363 9.69176 7.50599 8.69739 6.72487 7.69405C6.32979 7.18677 6.37469 6.46625 6.82812 6.0106L7.70127 5.13745C8.13897 4.69975 8.13897 3.98821 7.70127 3.55051L4.48026 0.329495C4.04256 -0.108204 3.33102 -0.108204 2.89332 0.329495L2.40849 0.81433L0.327734 2.89508C0.0224444 3.20037 -0.0785629 3.65154 0.0628474 4.06006Z" fill="white"/>
</svg>
