<svg width="30" height="30" viewBox="0 0 30 30" fill="none" xmlns="http://www.w3.org/2000/svg">
<g clip-path="url(#clip0_54_992)">
<path d="M0.0942711 6.09021C1.66325 10.6019 4.9662 15.7263 9.61927 20.3794C14.2723 25.0324 19.3968 28.3354 23.9084 29.9044C24.5212 30.1165 25.198 29.965 25.6592 29.5071L28.7804 26.3859L29.5076 25.6587C30.1642 25.0021 30.1642 23.9348 29.5076 23.2783L24.6761 18.4501C24.0196 17.7936 22.9522 17.7936 22.2957 18.4501L20.986 19.7598C20.3059 20.44 19.2217 20.5073 18.4608 19.9147C16.9558 18.743 15.4643 17.4266 14.0199 15.9822C12.5755 14.5378 11.259 13.0462 10.0873 11.5412C9.49469 10.7803 9.56203 9.6995 10.2422 9.01602L11.5519 7.70629C12.2085 7.04974 12.2085 5.98243 11.5519 5.32588L6.72039 0.494364C6.06384 -0.162184 4.99653 -0.162184 4.33998 0.494364L3.61273 1.22162L0.491601 4.34275C0.0336667 4.80068 -0.117844 5.47743 0.0942711 6.09021Z" fill="white"/>
</g>
<defs>
<clipPath id="clip0_54_992">
<rect width="30" height="30" fill="white"/>
</clipPath>
</defs>
</svg>
