<svg width="329" height="349" viewBox="0 0 329 349" fill="none" xmlns="http://www.w3.org/2000/svg">
<g clip-path="url(#clip0_422_833)">
<path d="M321.082 279.278C319.311 280.813 317.067 281.758 314.587 281.876C284.947 283.057 256.96 270.894 237.476 248.457C218.109 226.138 209.961 196.498 215.393 167.449C216.456 161.663 222.006 157.884 227.792 158.946C233.579 160.009 237.358 165.559 236.295 171.346C232.162 194.137 238.42 217.164 253.536 234.641C268.651 252.118 290.615 261.565 313.76 260.738C319.665 260.502 324.624 265.107 324.743 270.894C324.861 274.2 323.444 277.271 321.082 279.278Z" fill="url(#paint0_linear_422_833)"/>
<path d="M3.66171 279.278C5.43303 280.813 7.6767 281.758 10.1565 281.876C39.7966 283.057 67.7834 270.894 87.2679 248.457C106.634 226.138 114.782 196.498 109.35 167.449C108.288 161.663 102.737 157.884 96.9511 158.946C91.1648 160.009 87.386 165.559 88.4488 171.346C92.5819 194.137 86.3232 217.164 71.208 234.641C56.0927 252.118 34.1284 261.565 10.9832 260.738C5.07877 260.502 0.119075 265.107 0.00098736 270.894C-0.117101 274.2 1.29995 277.271 3.66171 279.278Z" fill="url(#paint1_linear_422_833)"/>
<path d="M208.544 -0.00012207L114.782 38.8508C113.601 38.8508 112.892 40.0317 113.483 40.9764L122.339 57.6268C122.812 58.5715 124.229 58.6896 124.819 57.7449L209.724 2.12546C210.315 1.29884 209.724 -0.00012207 208.544 -0.00012207Z" fill="#2A3067"/>
<path d="M306.675 110.294C306.675 110.884 306.675 111.475 306.675 112.065C306.557 116.198 306.085 120.331 304.668 124.346C303.723 127.062 302.424 129.66 300.653 131.904C297.582 135.801 293.567 138.281 288.844 139.816C284.593 141.115 280.223 141.587 275.736 141.587C275.618 141.587 275.618 141.587 275.382 141.587C275.5 139.934 275.5 138.281 275.618 136.628C275.972 132.613 276.799 128.834 278.452 125.173C279.869 121.985 281.877 119.269 284.475 117.025C287.545 114.427 291.088 112.774 294.984 111.711C298.763 110.766 302.542 110.412 306.321 110.412C306.439 110.294 306.557 110.294 306.675 110.294Z" fill="#2A3067"/>
<path d="M328.992 142.65C328.52 143.122 327.93 143.595 327.457 144.185C323.56 147.846 319.427 151.034 314.704 153.396C311.397 155.049 307.973 156.112 304.43 156.466C298.171 157.175 292.385 155.876 286.835 152.924C281.875 150.326 277.506 146.783 273.609 142.886C273.491 142.768 273.491 142.768 273.373 142.532C274.908 141.115 276.443 139.698 277.978 138.399C281.757 135.092 286.008 132.376 290.732 130.605C294.865 129.07 299.116 128.361 303.485 128.716C308.563 129.07 313.169 130.841 317.538 133.439C321.671 135.919 325.45 138.989 328.874 142.414C328.756 142.296 328.874 142.414 328.992 142.65Z" fill="#2A3067"/>
<path opacity="0.2" d="M162.372 348.477C205.742 348.477 240.901 344.988 240.901 340.683C240.901 336.379 205.742 332.89 162.372 332.89C119.002 332.89 83.8438 336.379 83.8438 340.683C83.8438 344.988 119.002 348.477 162.372 348.477Z" fill="#C4D3FF"/>
<path d="M301.125 172.88C301.125 227.555 239.011 271.956 162.371 271.956C85.7324 271.956 23.6182 227.555 23.6182 172.88C23.6182 162.253 25.9799 152.097 30.2311 142.532C48.1805 102.736 100.611 73.8047 162.371 73.8047C224.131 73.8047 276.562 102.618 294.512 142.532C298.763 152.097 301.125 162.371 301.125 172.88Z" fill="url(#paint2_linear_422_833)"/>
<path d="M294.511 142.532H30.2305C48.1798 102.736 100.611 73.8047 162.371 73.8047C224.131 73.8047 276.562 102.736 294.511 142.532Z" fill="#2A3067"/>
<path opacity="0.4" d="M205.118 234.286C234.923 234.286 259.085 212.345 259.085 185.28C259.085 158.214 234.923 136.273 205.118 136.273C175.314 136.273 151.152 158.214 151.152 185.28C151.152 212.345 175.314 234.286 205.118 234.286Z" fill="url(#paint3_radial_422_833)"/>
<path opacity="0.4" d="M119.623 234.286C149.428 234.286 173.59 212.345 173.59 185.28C173.59 158.214 149.428 136.273 119.623 136.273C89.8187 136.273 65.6572 158.214 65.6572 185.28C65.6572 212.345 89.8187 234.286 119.623 234.286Z" fill="url(#paint4_radial_422_833)"/>
<path d="M264.4 142.768C262.51 144.658 260.503 146.429 258.613 148.2C244.561 161.426 229.446 173.235 211.969 181.737C200.042 187.642 187.406 191.657 174.18 193.074C151.39 195.554 129.898 190.83 109.704 180.202C91.519 170.637 75.6952 157.884 61.2885 143.359C61.0523 143.123 60.9342 142.886 60.3438 142.178C66.1301 136.982 71.5621 131.786 77.3484 126.826C91.4009 115.018 106.634 105.098 123.993 98.4853C138.99 92.8171 154.578 90.4553 170.52 91.6362C189.06 93.0533 206.182 99.3119 222.006 108.759C237.239 117.852 250.82 129.07 263.337 141.587C263.691 141.824 263.927 142.178 264.4 142.768Z" fill="white"/>
<path d="M162.371 180.083C183.111 180.083 199.923 163.271 199.923 142.531C199.923 121.792 183.111 104.979 162.371 104.979C141.632 104.979 124.819 121.792 124.819 142.531C124.819 163.271 141.632 180.083 162.371 180.083Z" fill="#2A3067"/>
<path d="M173.589 205.118C173.589 205.118 168.984 211.141 163.197 211.141C157.411 211.141 152.806 205.118 152.806 205.118" stroke="#2A3067" stroke-width="3.85425" stroke-miterlimit="10" stroke-linecap="round"/>
</g>
<defs>
<linearGradient id="paint0_linear_422_833" x1="296.573" y1="124.211" x2="196.741" y2="481.735" gradientUnits="userSpaceOnUse">
<stop stop-color="#2942D6"/>
<stop offset="1" stop-color="#43EFCE"/>
</linearGradient>
<linearGradient id="paint1_linear_422_833" x1="27.7162" y1="123.72" x2="127.548" y2="481.244" gradientUnits="userSpaceOnUse">
<stop stop-color="#2942D6"/>
<stop offset="1" stop-color="#43EFCE"/>
</linearGradient>
<linearGradient id="paint2_linear_422_833" x1="228.884" y1="276.176" x2="81.3299" y2="47.0338" gradientUnits="userSpaceOnUse">
<stop stop-color="#2942D6"/>
<stop offset="1" stop-color="#43EFCE"/>
</linearGradient>
<radialGradient id="paint3_radial_422_833" cx="0" cy="0" r="1" gradientUnits="userSpaceOnUse" gradientTransform="translate(205.219 185.317) scale(53.9525 48.999)">
<stop stop-color="#FFBDE4"/>
<stop offset="1" stop-color="#FFBDE4" stop-opacity="0"/>
</radialGradient>
<radialGradient id="paint4_radial_422_833" cx="0" cy="0" r="1" gradientUnits="userSpaceOnUse" gradientTransform="translate(119.659 185.317) scale(53.9525 48.999)">
<stop stop-color="#FFBDE4"/>
<stop offset="1" stop-color="#FFBDE4" stop-opacity="0"/>
</radialGradient>
<clipPath id="clip0_422_833">
<rect width="328.993" height="348.477" fill="white"/>
</clipPath>
</defs>
</svg>
